<?xml version="1.0" encoding="UTF-8" standalone="no"?>
<svg
   xmlns:dc="http://purl.org/dc/elements/1.1/"
   xmlns:cc="http://web.resource.org/cc/"
   xmlns:rdf="http://www.w3.org/1999/02/22-rdf-syntax-ns#"
   xmlns:svg="http://www.w3.org/2000/svg"
   xmlns="http://www.w3.org/2000/svg"
   xmlns:sodipodi="http://sodipodi.sourceforge.net/DTD/sodipodi-0.dtd"
   xmlns:inkscape="http://www.inkscape.org/namespaces/inkscape"
   width="4000"
   height="2300"
   viewBox="0 -410 3080 1900"
   id="svg2"
   sodipodi:version="0.32"
   inkscape:version="0.45.1"
   sodipodi:docname="cirillico.svg"
   inkscape:output_extension="org.inkscape.output.svg.inkscape"
   sodipodi:docbase="C:\Documents and Settings\Flanker\Desktop"
   version="1.0">
  <metadata
     id="metadata15">
    <rdf:RDF>
      <cc:Work
         rdf:about="">
        <dc:format>image/svg+xml</dc:format>
        <dc:type
           rdf:resource="http://purl.org/dc/dcmitype/StillImage" />
      </cc:Work>
    </rdf:RDF>
  </metadata>
  <defs
     id="defs13" />
  <sodipodi:namedview
     inkscape:window-height="1005"
     inkscape:window-width="1280"
     inkscape:pageshadow="2"
     inkscape:pageopacity="0.0"
     guidetolerance="10.0"
     gridtolerance="10.0"
     objecttolerance="10.0"
     borderopacity="1.0"
     bordercolor="#666666"
     pagecolor="#ffffff"
     id="base"
     inkscape:zoom="0.09973684"
     inkscape:cx="2328.5853"
     inkscape:cy="1773.8148"
     inkscape:window-x="-4"
     inkscape:window-y="-4"
     inkscape:current-layer="svg2"
     width="4000px"
     height="2300px"
     inkscape:showpageshadow="false" />
  <path
     id="path3164"
     style="color:#000000;fill:#f9f9f9;fill-opacity:1;fill-rule:evenodd;stroke:#b3b3b3;stroke-width:12.39130402;stroke-linecap:round;stroke-linejoin:round;stroke-miterlimit:4;stroke-dashoffset:0;stroke-opacity:1;marker:none;marker-start:none;marker-mid:none;marker-end:none;visibility:visible;display:inline;overflow:visible;enable-background:accumulate"
     d="M -105.98536,-355.55365 L 3182.9625,-355.55365M -105.98536,1437.1964 L 3182.9625,1437.1964M -105.98536,5.8022699 L 3182.9625,5.8022699M -105.98536,1084.6989 L 3182.9625,1084.6989M -105.98536,-47.319526 L 3182.9625,-47.319526" />
  <path
     style="font-size:1648.20751953px;font-style:normal;font-weight:normal;fill:#000000;fill-opacity:1;stroke:none;stroke-width:1px;stroke-linecap:butt;stroke-linejoin:miter;stroke-opacity:1;font-family:Lello"
     d="M 1327.9381,725.5204 L 905.42395,725.5204 L 831.38338,897.74521 C 813.14126,940.13091 804.02033,971.7859 804.02056,992.71029 C 804.02033,1009.3427 811.93408,1023.963 827.76183,1036.5713 C 843.58907,1049.1797 877.79256,1057.3617 930.3724,1061.1173 L 930.3724,1090.8945 L 586.72757,1090.8945 L 586.72757,1061.1173 C 632.33222,1053.0695 661.84111,1042.6072 675.25434,1029.7306 C 702.61704,1003.9774 732.93072,951.6662 766.19548,872.79676 L 1150.0798,-25.347573 L 1178.2474,-25.347573 L 1558.1077,882.45422 C 1588.6886,955.42188 1616.4538,1002.7702 1641.4033,1024.4995 C 1666.3507,1046.2288 1701.0907,1058.4347 1745.6235,1061.1173 L 1745.6235,1090.8945 L 1315.0615,1090.8945 L 1315.0615,1061.1173 C 1358.5193,1058.9713 1387.894,1051.7282 1403.1858,1039.388 C 1418.476,1027.048 1426.1215,1012.0253 1426.1223,994.31987 C 1426.1215,970.71285 1415.391,933.42434 1393.9308,882.45422 L 1327.9381,725.5204 z M 1305.404,665.96603 L 1120.3026,224.94175 L 930.3724,665.96603 L 1305.404,665.96603 z M 2234.1304,984.66241 C 2158.4798,1043.1438 2110.9973,1076.9449 2091.6827,1086.0658 C 2062.71,1099.4789 2031.8598,1106.1855 1999.132,1106.1855 C 1948.1619,1106.1855 1906.1788,1088.7484 1873.1826,1053.8742 C 1840.1862,1019.0001 1823.688,973.12722 1823.6881,916.25536 C 1823.688,880.30833 1831.7359,849.18986 1847.8317,822.89985 C 1869.8292,786.4164 1908.0566,752.07877 1962.5141,719.88688 C 2016.9713,687.69573 2107.5099,648.52938 2234.1304,602.38771 L 2234.1304,573.41531 C 2234.1299,499.91186 2222.4605,449.47848 2199.122,422.11502 C 2175.7828,394.75289 2141.8475,381.07149 2097.3163,381.07079 C 2063.5148,381.07149 2036.6886,390.19243 2016.8374,408.43361 C 1996.4492,426.67615 1986.2552,447.60064 1986.2554,471.20713 L 1987.865,517.88489 C 1987.8648,542.56562 1981.5606,561.61227 1968.9524,575.02489 C 1956.3439,588.43854 1939.8457,595.14511 1919.4579,595.14461 C 1899.6063,595.14511 1883.3764,588.17028 1870.7682,574.2201 C 1858.1598,560.27096 1851.8556,541.22431 1851.8557,517.0801 C 1851.8556,470.93949 1875.4627,428.55399 1922.6771,389.92346 C 1969.8912,351.29434 2036.152,331.97943 2121.4599,331.97867 C 2186.9157,331.97943 2240.5682,342.9782 2282.4177,364.97501 C 2314.0722,381.60802 2337.411,407.6295 2352.4343,443.03952 C 2362.0912,466.11076 2366.9199,513.32499 2366.9205,584.68236 L 2366.9205,834.97168 C 2366.9199,905.25676 2368.2612,948.31292 2370.9445,964.14029 C 2373.6265,979.96792 2378.0528,990.56429 2384.2235,995.92945 C 2390.3929,1001.2948 2397.5019,1003.9774 2405.5504,1003.9773 C 2414.1341,1003.9774 2421.6455,1002.0996 2428.0845,998.34382 C 2439.3508,991.36908 2461.0801,971.7859 2493.2724,939.59423 L 2493.2724,984.66241 C 2433.1808,1065.1413 2375.7726,1105.3807 2321.0476,1105.3807 C 2294.7573,1105.3807 2273.8328,1096.2598 2258.274,1078.0179 C 2242.7143,1059.7761 2234.6664,1028.6576 2234.1304,984.66241 L 2234.1304,984.66241 z M 2234.1304,932.35113 L 2234.1304,651.47983 C 2153.1146,683.67179 2100.8033,706.47412 2077.1965,719.88688 C 2034.8107,743.49437 2004.497,768.17453 1986.2554,793.92745 C 1968.0133,819.68097 1958.8924,847.84855 1958.8926,878.43028 C 1958.8924,917.06032 1970.4277,949.11771 1993.4985,974.60255 C 2016.5689,1000.0876 2043.1269,1012.8301 2073.1726,1012.83 C 2113.9482,1012.8301 2167.6008,986.00383 2234.1304,932.35113 L 2234.1304,932.35113 z "
     id="text2159" />
  <text
     xml:space="preserve"
     style="font-size:12px;font-style:normal;font-weight:normal;fill:#000000;fill-opacity:1;stroke:none;stroke-width:1px;stroke-linecap:butt;stroke-linejoin:miter;stroke-opacity:1;font-family:Lello"
     x="-471.24011"
     y="-946.41162"
     id="text2171"><tspan
       sodipodi:role="line"
       id="tspan2173"
       x="-471.24011"
       y="-946.41162" /></text>
</svg>
