<svg width="51" height="40" viewBox="0 0 51 40" fill="none" xmlns="http://www.w3.org/2000/svg">
<path d="M49.1786 0H1.82143C0.813951 0 0 0.8125 0 1.81818V38.1818C0 39.1875 0.813951 40 1.82143 40H49.1786C50.186 40 51 39.1875 51 38.1818V1.81818C51 0.8125 50.186 0 49.1786 0ZM4.09821 4.09091H46.9018V10.9091H4.09821V4.09091ZM46.9018 35.9091H4.09821V15.9091H46.9018V35.9091ZM33.4118 32.2727H42.8036C43.054 32.2727 43.2589 32.0682 43.2589 31.8182V27.7273C43.2589 27.4773 43.054 27.2727 42.8036 27.2727H33.4118C33.1614 27.2727 32.9565 27.4773 32.9565 27.7273V31.8182C32.9565 32.0682 33.1614 32.2727 33.4118 32.2727Z" fill="#4C4E5F"/>
</svg>
