<svg width="34" height="47" viewBox="0 0 34 47" fill="none" xmlns="http://www.w3.org/2000/svg">
<path d="M8.5 0C6.1625 0 4.25 1.92273 4.25 4.27273V12.8182H8.5V6.40909H29.75V40.5909H8.5V34.1818H4.25V42.7273C4.25 45.0773 6.1625 47 8.5 47H29.75C32.0875 47 34 45.0773 34 42.7273V4.27273C34 1.92273 32.0875 0 29.75 0H8.5ZM6.375 17.0909C2.7625 17.0909 0 19.8682 0 23.5C0 27.1318 2.7625 29.9091 6.375 29.9091C9.1375 29.9091 11.475 28.2 12.325 25.6364H17V29.9091H21.25V25.6364H25.5V21.3636H12.325C11.475 18.8 9.1375 17.0909 6.375 17.0909ZM6.375 21.3636C7.65 21.3636 8.5 22.2182 8.5 23.5C8.5 24.7818 7.65 25.6364 6.375 25.6364C5.1 25.6364 4.25 24.7818 4.25 23.5C4.25 22.2182 5.1 21.3636 6.375 21.3636Z" fill="#4C4E5F"/>
</svg>
