<svg width="29" height="28" viewBox="0 0 29 28" fill="none" xmlns="http://www.w3.org/2000/svg">
<path d="M14.0783 6C13.0839 6 12.1118 6.29325 11.285 6.84265C10.4581 7.39206 9.81369 8.17295 9.43314 9.08658C9.05259 10.0002 8.95302 11.0055 9.14703 11.9755C9.34103 12.9454 9.81989 13.8363 10.5231 14.5355C11.2262 15.2348 12.1221 15.711 13.0974 15.9039C14.0727 16.0969 15.0837 15.9978 16.0024 15.6194C16.9211 15.241 17.7064 14.6001 18.2588 13.7779C18.8113 12.9556 19.1062 11.9889 19.1062 11C19.1062 9.67392 18.5765 8.40215 17.6336 7.46447C16.6907 6.52678 15.4118 6 14.0783 6ZM14.0783 14C13.4817 14 12.8984 13.8241 12.4023 13.4944C11.9062 13.1648 11.5195 12.6962 11.2912 12.1481C11.0629 11.5999 11.0031 10.9967 11.1195 10.4147C11.2359 9.83279 11.5233 9.29824 11.9452 8.87868C12.3671 8.45912 12.9046 8.1734 13.4898 8.05764C14.075 7.94189 14.6815 8.0013 15.2328 8.22836C15.784 8.45542 16.2552 8.83994 16.5866 9.33329C16.9181 9.82664 17.095 10.4067 17.095 11C17.0942 11.7954 16.7762 12.558 16.2106 13.1204C15.645 13.6829 14.8782 13.9992 14.0783 14Z" fill="#4C4E5F"/>
<path d="M14.0782 0C11.2938 0 8.57191 0.821086 6.25677 2.35943C3.94162 3.89777 2.13719 6.08427 1.07164 8.64243C0.00609984 11.2006 -0.272695 14.0155 0.270515 16.7313C0.813724 19.447 2.15454 21.9416 4.12341 23.8995C6.09228 25.8574 8.60077 27.1908 11.3317 27.731C14.0626 28.2712 16.8932 27.9939 19.4657 26.9343C22.0381 25.8747 24.2368 24.0803 25.7838 21.778C27.3307 19.4757 28.1564 16.7689 28.1564 14C28.1521 10.2883 26.6675 6.72977 24.0283 4.10518C21.389 1.48059 17.8106 0.00423472 14.0782 0ZM8.04468 24.377V23C8.04548 22.2046 8.36357 21.442 8.92915 20.8796C9.49473 20.3171 10.2616 20.0008 11.0614 20H17.0949C17.8948 20.0008 18.6616 20.3171 19.2272 20.8796C19.7928 21.442 20.1109 22.2046 20.1117 23V24.377C18.2807 25.4402 16.1985 26.0005 14.0782 26.0005C11.9579 26.0005 9.87568 25.4402 8.04468 24.377ZM22.1148 22.926C22.0948 21.6143 21.5574 20.363 20.6184 19.4416C19.6795 18.5202 18.4141 18.0025 17.0949 18H11.0614C9.74229 18.0025 8.47692 18.5202 7.53796 19.4416C6.59899 20.363 6.0616 21.6143 6.04156 22.926C4.21799 21.3068 2.93202 19.1749 2.35391 16.8127C1.77581 14.4505 1.93284 11.9693 2.80422 9.69786C3.6756 7.42638 5.22022 5.47167 7.23355 4.09257C9.24688 2.71347 11.634 1.97503 14.0787 1.97503C16.5234 1.97503 18.9105 2.71347 20.9238 4.09257C22.9372 5.47167 24.4818 7.42638 25.3532 9.69786C26.2245 11.9693 26.3816 14.4505 25.8035 16.8127C25.2254 19.1749 23.9394 21.3068 22.1158 22.926H22.1148Z" fill="#4C4E5F"/>
</svg>
