<svg width="1441" height="124" viewBox="0 0 1441 124" fill="none" xmlns="http://www.w3.org/2000/svg">
<path fill-rule="evenodd" clip-rule="evenodd" d="M0 0.519165L59.6664 5.21426C120.459 9.90935 239.791 19.2995 360.25 35.1906C480.709 51.4429 600.041 74.5572 720.5 79.2523C840.959 83.9474 960.291 69.8621 1080.75 65.5282C1201.21 60.8331 1320.54 65.5282 1381.33 67.6951L1441 69.8621V125.481H1381.33C1320.54 125.481 1201.21 125.481 1080.75 125.481C960.291 125.481 840.959 125.481 720.5 125.481C600.041 125.481 480.709 125.481 360.25 125.481C239.791 125.481 120.459 125.481 59.6664 125.481H0V0.519165Z" fill="#4AAD41"/>
<path fill-rule="evenodd" clip-rule="evenodd" d="M0 50.5039L48.0333 60.5008C96.0667 70.4977 192.133 90.4916 288.2 85.4931C384.267 80.4947 480.333 50.5039 576.4 30.51C672.467 10.5161 768.533 0.519165 864.6 0.519165C960.667 0.519165 1056.73 10.5161 1152.8 28.0107C1248.87 45.5054 1344.93 70.4977 1392.97 82.9939L1441 95.4901V125.481H1392.97C1344.93 125.481 1248.87 125.481 1152.8 125.481C1056.73 125.481 960.667 125.481 864.6 125.481C768.533 125.481 672.467 125.481 576.4 125.481C480.333 125.481 384.267 125.481 288.2 125.481C192.133 125.481 96.0667 125.481 48.0333 125.481H0V50.5039Z" fill="#2B2D3C"/>
</svg>
