<svg width="231" height="202" viewBox="0 0 231 202" fill="none" xmlns="http://www.w3.org/2000/svg">
<path fill-rule="evenodd" clip-rule="evenodd" d="M3.62214 50.9173L59.7565 4.19858C63.724 0.0585783 68.2809 -0.617047 72.2771 3.50858C72.2771 3.50858 71.7453 34.9898 72.1909 34.9898C81.9515 34.9898 87.759 36.6142 96.6284 39.5036C108.334 43.3665 119.132 49.5678 128.368 57.7311C146.711 73.8742 158.455 92.2598 158.455 118.293C158.455 135.284 150.937 129.103 147.789 123.166C132.911 95.2067 105.771 81.0761 71.8603 81.0761C71.429 81.0761 71.9034 111.925 71.9034 111.925C71.1364 112.806 70.2004 113.524 69.1509 114.036C68.1013 114.549 66.9595 114.845 65.7932 114.908C64.6269 114.971 63.4598 114.799 62.3611 114.403C61.2625 114.007 60.2545 113.394 59.3971 112.6L3.62214 65.8817C1.69195 63.869 0.614258 61.1882 0.614258 58.3995C0.614258 55.6108 1.69195 52.9301 3.62214 50.9173V50.9173Z" fill="white"/>
<path fill-rule="evenodd" clip-rule="evenodd" d="M28.0899 116.511V188.142H216.661V56.9701H141.897C137.944 52.4851 132.999 46.6633 124.374 43.7595H230.001V201.367H15.5261V104.71L28.0899 116.511V116.511Z" fill="white"/>
</svg>
