<svg width="21" height="21" viewBox="0 0 21 21" fill="none" xmlns="http://www.w3.org/2000/svg">
<path d="M7.61862 17.2436L15.75 9.11217L11.8878 5.24993L3.75638 13.3813C3.64443 13.4934 3.56491 13.6337 3.52625 13.7873L2.625 18.3749L7.21175 17.4737C7.36575 17.4352 7.50662 17.3556 7.61862 17.2436ZM18.375 6.48717C18.7031 6.159 18.8874 5.71396 18.8874 5.24993C18.8874 4.78589 18.7031 4.34085 18.375 4.01268L16.9872 2.62493C16.6591 2.29685 16.214 2.11255 15.75 2.11255C15.286 2.11255 14.8409 2.29685 14.5128 2.62493L13.125 4.01268L16.9872 7.87493L18.375 6.48717Z" fill="#F8F8F8"/>
</svg>
