<svg width="20" height="20" viewBox="0 0 20 20" fill="none" xmlns="http://www.w3.org/2000/svg">
<path d="M16.6667 0.666626H6.00008C5.64646 0.666626 5.30732 0.807102 5.05727 1.05715C4.80722 1.3072 4.66675 1.64634 4.66675 1.99996V6.66663H10.3334L8.08008 4.47329C7.97086 4.34576 7.91379 4.18171 7.92027 4.01392C7.92675 3.84614 7.99631 3.68698 8.11504 3.56825C8.23377 3.44952 8.39293 3.37997 8.56071 3.37349C8.7285 3.367 8.89255 3.42408 9.02008 3.53329L12.8801 7.39329L9.02008 11.2533C8.89255 11.3625 8.7285 11.4196 8.56071 11.4131C8.39293 11.4066 8.23377 11.3371 8.11504 11.2183C7.99631 11.0996 7.92675 10.9404 7.92027 10.7727C7.91379 10.6049 7.97086 10.4408 8.08008 10.3133L10.3334 7.99996H4.66675V18C4.66675 18.3536 4.80722 18.6927 5.05727 18.9428C5.30732 19.1928 5.64646 19.3333 6.00008 19.3333H16.6667C17.0204 19.3333 17.3595 19.1928 17.6096 18.9428C17.8596 18.6927 18.0001 18.3536 18.0001 18V1.99996C18.0001 1.64634 17.8596 1.3072 17.6096 1.05715C17.3595 0.807102 17.0204 0.666626 16.6667 0.666626Z" fill="white"/>
<path d="M4.66667 6.66663H0.666667C0.489856 6.66663 0.320286 6.73686 0.195262 6.86189C0.0702379 6.98691 0 7.15648 0 7.33329C0 7.5101 0.0702379 7.67967 0.195262 7.8047C0.320286 7.92972 0.489856 7.99996 0.666667 7.99996H4.66667V6.66663Z" fill="white"/>
</svg>
