<svg width="20" height="19" viewBox="0 0 20 19" fill="none" xmlns="http://www.w3.org/2000/svg">
<path d="M12.4138 0H1.37931C1.01349 0 0.662661 0.142984 0.403991 0.397498C0.14532 0.652012 0 0.997206 0 1.35714V17.6429C0 18.0028 0.14532 18.348 0.403991 18.6025C0.662661 18.857 1.01349 19 1.37931 19H12.4138C12.7796 19 13.1304 18.857 13.3891 18.6025C13.6478 18.348 13.7931 18.0028 13.7931 17.6429V13.5714H7.33103C7.14813 13.5714 6.97271 13.4999 6.84337 13.3727C6.71404 13.2454 6.64138 13.0728 6.64138 12.8929C6.64138 12.7129 6.71404 12.5403 6.84337 12.413C6.97271 12.2858 7.14813 12.2143 7.33103 12.2143H13.7931V1.35714C13.7931 0.997206 13.6478 0.652012 13.3891 0.397498C13.1304 0.142984 12.7796 0 12.4138 0Z" fill="#F8F8F8"/>
<path d="M15.9723 9.01143C15.8403 8.90027 15.6706 8.84218 15.4971 8.84877C15.3235 8.85537 15.1589 8.92617 15.036 9.04702C14.9132 9.16787 14.8413 9.32987 14.8345 9.50065C14.8278 9.67143 14.8869 9.83841 14.9999 9.96822L17.3309 12.2143H13.793V13.5714H17.3309L14.9999 15.9193C14.9277 15.9801 14.869 16.055 14.8276 16.1392C14.7862 16.2234 14.763 16.3151 14.7593 16.4085C14.7556 16.502 14.7716 16.5951 14.8063 16.6822C14.841 16.7693 14.8936 16.8484 14.9608 16.9145C15.028 16.9806 15.1084 17.0324 15.1969 17.0665C15.2854 17.1006 15.3801 17.1164 15.4751 17.1128C15.5701 17.1092 15.6632 17.0863 15.7488 17.0455C15.8344 17.0048 15.9105 16.9471 15.9723 16.8761L19.9999 12.9404L15.9723 9.01143Z" fill="#F8F8F8"/>
</svg>
