<svg width="20" height="22" viewBox="0 0 20 22" fill="none" xmlns="http://www.w3.org/2000/svg">
<path d="M8 1.33325H1.33333C0.6 1.33325 0 1.93325 0 2.66659V9.33325C0 10.0666 0.6 10.6666 1.33333 10.6666H8C8.73333 10.6666 9.33333 10.0666 9.33333 9.33325V2.66659C9.33333 1.93325 8.73333 1.33325 8 1.33325ZM8 6.66659H1.33333V5.33325H8V6.66659ZM18.6667 1.33325H12C11.2667 1.33325 10.6667 1.93325 10.6667 2.66659V19.9999C10.6667 20.7333 11.2667 21.3333 12 21.3333H18.6667C19.4 21.3333 20 20.7333 20 19.9999V2.66659C20 1.93325 19.4 1.33325 18.6667 1.33325ZM18.6667 13.3333H12V11.9999H18.6667V13.3333ZM18.6667 9.33325H12V7.99992H18.6667V9.33325ZM8 11.9999H1.33333C0.6 11.9999 0 12.5999 0 13.3333V19.9999C0 20.7333 0.6 21.3333 1.33333 21.3333H8C8.73333 21.3333 9.33333 20.7333 9.33333 19.9999V13.3333C9.33333 12.5999 8.73333 11.9999 8 11.9999ZM8 17.3333H5.33333V19.9999H4V17.3333H1.33333V15.9999H4V13.3333H5.33333V15.9999H8V17.3333Z" fill="#F8F8F8"/>
</svg>
