<svg width="60" height="60" viewBox="0 0 60 60" fill="none" xmlns="http://www.w3.org/2000/svg">
<path fill-rule="evenodd" clip-rule="evenodd" d="M30 0C13.4318 0 0 13.4318 0 30C0 46.5682 13.4318 60 30 60C46.5682 60 60 46.5682 60 30C60 13.4318 46.5682 0 30 0ZM36.0191 21.0191C36.5159 20.5047 36.7908 19.8158 36.7846 19.1007C36.7784 18.3856 36.4915 17.7016 35.9859 17.1959C35.4802 16.6903 34.7962 16.4035 34.0811 16.3973C33.366 16.391 32.6771 16.6659 32.1627 17.1627L21.2536 28.0718C20.7424 28.5833 20.4551 29.2768 20.4551 30C20.4551 30.7232 20.7424 31.4167 21.2536 31.9282L32.1627 42.8373C32.6771 43.3341 33.366 43.609 34.0811 43.6027C34.7962 43.5965 35.4802 43.3097 35.9859 42.8041C36.4915 42.2984 36.7784 41.6144 36.7846 40.8993C36.7908 40.1842 36.5159 39.4953 36.0191 38.9809L27.0382 30L36.0191 21.0191Z" fill="black" fill-opacity="0.31"/>
</svg>
