<svg width="49" height="49" viewBox="0 0 49 49" fill="none" xmlns="http://www.w3.org/2000/svg">
<path d="M9.18766 24.5C12.0066 24.5 14.2918 22.2148 14.2918 19.3959C14.2918 16.5769 12.0066 14.2917 9.18766 14.2917C6.36871 14.2917 4.0835 16.5769 4.0835 19.3959C4.0835 22.2148 6.36871 24.5 9.18766 24.5Z" fill="white"/>
<path d="M18.3752 16.3333C21.1941 16.3333 23.4793 14.0481 23.4793 11.2292C23.4793 8.41021 21.1941 6.125 18.3752 6.125C15.5562 6.125 13.271 8.41021 13.271 11.2292C13.271 14.0481 15.5562 16.3333 18.3752 16.3333Z" fill="white"/>
<path d="M30.6252 16.3333C33.4441 16.3333 35.7293 14.0481 35.7293 11.2292C35.7293 8.41021 33.4441 6.125 30.6252 6.125C27.8062 6.125 25.521 8.41021 25.521 11.2292C25.521 14.0481 27.8062 16.3333 30.6252 16.3333Z" fill="white"/>
<path d="M39.8127 24.5C42.6316 24.5 44.9168 22.2148 44.9168 19.3959C44.9168 16.5769 42.6316 14.2917 39.8127 14.2917C36.9937 14.2917 34.7085 16.5769 34.7085 19.3959C34.7085 22.2148 36.9937 24.5 39.8127 24.5Z" fill="white"/>
<path d="M35.4029 30.3392C33.6266 28.2567 32.1362 26.4804 30.3396 24.3979C29.4004 23.2954 28.1958 22.1929 26.7666 21.7029C26.5421 21.6213 26.3175 21.56 26.0929 21.5192C25.5825 21.4375 25.0312 21.4375 24.5004 21.4375C23.9696 21.4375 23.4183 21.4375 22.8875 21.5396C22.6629 21.5804 22.4383 21.6417 22.2137 21.7233C20.7846 22.2133 19.6004 23.3158 18.6408 24.4183C16.8646 26.5008 15.3741 28.2771 13.5775 30.3596C10.9029 33.0342 7.61581 35.9946 8.22831 40.1392C8.82039 42.2217 10.3108 44.2838 12.9854 44.8758C14.4758 45.1821 19.2329 43.9775 24.2962 43.9775H24.6637C29.7271 43.9775 34.4841 45.1617 35.9746 44.8758C38.6491 44.2838 40.1396 42.2013 40.7316 40.1392C41.3646 35.9742 38.0775 33.0138 35.4029 30.3392Z" fill="white"/>
</svg>
